<?xml version="1.0" encoding="UTF-8"?>
<svg xmlns="http://www.w3.org/2000/svg" width="980" height="320" viewBox="0 0 980 320" role="img" aria-labelledby="title desc">
  <title id="title">Credentials AI Neon Sunset Primary Logo</title>
  <desc id="desc">Credentials AI wordmark with CA Orbit Neon Sunset brand mark.</desc>
  
  <defs>
    <linearGradient id="markAccent" x1="0" x2="1" y1="0" y2="1">
      <stop offset="0" stop-color="#FF2E88"/>
      <stop offset="0.52" stop-color="#FF7A00"/>
      <stop offset="1" stop-color="#FDE047"/>
    </linearGradient>
    <linearGradient id="rule" x1="0" x2="1" y1="0" y2="0">
      <stop offset="0" stop-color="#FF2E88"/>
      <stop offset="0.5" stop-color="#FF7A00"/>
      <stop offset="1" stop-color="#FDE047"/>
    </linearGradient>
    <linearGradient id="tileBg" x1="0" x2="1" y1="0" y2="1">
      <stop offset="0" stop-color="#FFF1F2"/>
      <stop offset="1" stop-color="#FFF7ED"/>
    </linearGradient>
    <filter id="shadow" x="-20%" y="-20%" width="140%" height="140%">
      <feDropShadow dx="0" dy="14" stdDeviation="18" flood-color="#0F172A" flood-opacity="0.12"/>
    </filter>
  </defs>
  
  <g transform="translate(0 18) scale(1)">
    <circle cx="160" cy="144" r="124" fill="#FFE4E6" opacity="0.92"/>
    <path d="M220 67c-29-27-76-39-116-20-50 24-73 84-50 136 23 52 83 76 135 52 17-7 31-18 42-31" fill="none" stroke="#18181B" stroke-width="28" stroke-linecap="round"/>
    <path d="M190 232L247 70l59 162" fill="none" stroke="url(#markAccent)" stroke-width="27" stroke-linecap="round" stroke-linejoin="round"/>
    <path d="M214 160h64" fill="none" stroke="#FDE047" stroke-width="17" stroke-linecap="round"/>
    <path d="M72 84c56-48 142-53 204-9M84 232c65 45 153 33 204-25" fill="none" stroke="#FDBA74" stroke-width="7" stroke-linecap="round"/>
    <circle cx="78" cy="88" r="10" fill="#FF2E88"/>
    <circle cx="279" cy="75" r="10" fill="#FF7A00"/>
    <circle cx="89" cy="231" r="10" fill="#FDE047"/>
    <circle cx="289" cy="207" r="10" fill="#22D3EE"/>
  </g>
  <g transform="translate(350 92)">
    <text x="0" y="58" font-family="Inter, Arial, Helvetica, sans-serif" font-size="72" font-weight="800" letter-spacing="0" fill="#18181B">Credentials AI</text>
    <text x="2" y="112" font-family="Inter, Arial, Helvetica, sans-serif" font-size="26" font-weight="700" letter-spacing="5" fill="#334155">BY EROSIUM</text>
    <rect x="2" y="146" width="360" height="8" rx="4" fill="url(#rule)"/>
  </g>
</svg>